<svg xmlns:dc="http://purl.org/dc/elements/1.1/" xmlns:cc="http://creativecommons.org/ns#" xmlns:rdf="http://www.w3.org/1999/02/22-rdf-syntax-ns#" xmlns:svg="http://www.w3.org/2000/svg" xmlns="http://www.w3.org/2000/svg" xmlns:sodipodi="http://sodipodi.sourceforge.net/DTD/sodipodi-0.dtd" xmlns:inkscape="http://www.inkscape.org/namespaces/inkscape" viewBox="0 0 8.4666667 10.583333625" version="1.1" x="0px" y="0px"><svg:g><svg:path style="opacity:1;fill:#000000;fill-opacity:1;stroke:none;stroke-width:0.52916664;stroke-linecap:round;stroke-linejoin:round;stroke-miterlimit:4;stroke-dasharray:none;stroke-dashoffset:0;stroke-opacity:1;paint-order:stroke fill markers" d="m 1.9401916,2.2923668 c -1.06871504,7.1e-5 -1.94089176645,0.872253 -1.94096664353,1.940967 7.593541e-5,1.068715 0.87225265353,1.940889 1.94096664353,1.940966 a 0.26466837,0.26466837 0 0 0 5.167e-4,0 c 0.8190651,-0.0011 1.5427113,-0.517563 1.8195272,-1.273307 h 0.945162 c 0.2769899,0.756228 1.0014704,1.27278 1.8210768,1.273307 1.0687182,-7.7e-5 1.9408933,-0.872251 1.9409674,-1.940966 -7.67e-5,-1.067612 -0.8702569,-1.939314 -1.9378665,-1.940967 a 0.26466837,0.26466837 0 0 0 -5.159e-4,0 c -1.5161996,1.11e-4 -3.0938007,0 -4.5888677,0 z m 0,0.529166 c 1.4948961,0 3.0722355,1.1e-4 4.5883491,0 0.7818675,0.0012 1.4096814,0.629936 1.4097344,1.411801 -7.68e-5,0.782637 -0.628658,1.411167 -1.4112822,1.411283 -0.6498987,-4.5e-4 -1.2131556,-0.441449 -1.3694267,-1.072286 A 0.26466837,0.26466837 0 0 0 4.9007343,4.3713098 H 3.5648986 A 0.26466837,0.26466837 0 0 0 3.3080668,4.5723308 C 3.1518957,5.2027628 2.5896826,5.6436328 1.9401916,5.6446168 1.1576306,5.6444228 0.52898031,5.0159228 0.52890835,4.2333338 0.52898534,3.4506628 1.1575208,2.8215948 1.9401916,2.8215328 Z m 4.9764399,0.605132 A 0.36806327,0.36806327 0 0 0 6.5486966,3.7946008 0.36806327,0.36806327 0 0 0 6.9166315,4.1630538 0.36806327,0.36806327 0 0 0 7.284569,3.7946008 0.36806327,0.36806327 0 0 0 6.9166315,3.4266648 Z m -4.9800573,0.0047 a 0.26460979,0.26460979 0 0 0 -0.2599325,0.267684 v 0.199471 H 1.4771708 a 0.26464799,0.26464799 0 1 0 0,0.529167 h 0.1994709 v 0.198954 a 0.2646485,0.2646485 0 1 0 0.5291667,0 v -0.198954 h 0.197404 a 0.26464799,0.26464799 0 1 0 0,-0.529167 H 2.2058084 V 3.6989988 A 0.26460979,0.26460979 0 0 0 1.9365742,3.4313148 Z M 6.246389,4.2209308 A 0.36806327,0.36806327 0 0 0 5.8784515,4.5888668 0.36806327,0.36806327 0 0 0 6.246389,4.9568038 0.36806327,0.36806327 0 0 0 6.6148425,4.5888668 0.36806327,0.36806327 0 0 0 6.246389,4.2209308 Z"/></svg:g><text x="0" y="23.4666669" fill="#000000" font-size="5px" font-weight="bold" font-family="'Helvetica Neue', Helvetica, Arial-Unicode, Arial, Sans-serif">Created by Larea</text><text x="0" y="28.4666669" fill="#000000" font-size="5px" font-weight="bold" font-family="'Helvetica Neue', Helvetica, Arial-Unicode, Arial, Sans-serif">from the Noun Project</text></svg>